<?xml version="1.0" encoding="utf-8"?>
<svg xmlns="http://www.w3.org/2000/svg" width="1024" height="1024" viewBox="0 0 1024 1024">
  <!-- Blue rounded square background -->
  <rect x="12" y="12" width="1000" height="1000" rx="80" ry="80" fill="#155095"/>
  <!-- White "N" outline -->
  <path fill="#FEFEFE" transform="translate(12,12) scale(1.20)" d="M276.2 139.915C280.154 139.589 287.565 139.662 291.51 139.855C315.23 141.217 338.088 149.224 357.473 162.96C377.028 176.816 398.571 204.725 414.603 223.301L462.413 278.153C473.762 291.254 485.563 305.443 497.147 318.15C497.038 317.119 496.969 316.084 496.941 315.048C496.569 299.704 496.983 283.616 496.904 268.152C496.578 232.222 494.753 201.168 521.48 172.961C555.445 137.115 610.766 135.559 646.082 170.478C652.795 177.232 658.363 185.034 662.568 193.578C674.277 217.374 672.684 236.547 672.735 262.169L672.851 310.217C683.973 313.792 692.368 316.926 702.561 322.85C728.648 337.996 747.541 363.004 754.981 392.238C762.594 420.96 758.249 451.541 742.937 477.006C727.465 503.144 702.231 522.053 672.799 529.561C673.299 568.228 674.595 602.858 651.799 636.193C631.561 665.787 605.238 683.215 570.325 690.512C560.219 692.563 549.884 693.249 539.595 692.55C515.953 690.898 493.22 682.77 473.89 669.057C459.366 658.85 451.277 648.668 439.715 635.505L414.703 607.011L335.691 516.432C335.257 537.717 335.81 559.138 335.61 580.436C335.569 584.834 335.708 589.371 335.356 593.753C333.872 614.63 324.969 634.288 310.257 649.174C293.749 665.778 271.319 675.14 247.905 675.2C225.008 675.219 203.037 666.164 186.802 650.018C171.621 634.988 162.248 615.071 160.342 593.793C159.548 585.187 159.801 574.283 159.783 565.442L159.789 522.51C119.328 510.516 90.2592 485.601 78.0828 443.972C69.8394 414.707 73.5357 383.368 88.3615 356.824C104.084 328.521 129.275 311.949 159.804 303.25C159.786 289.24 159.695 275.275 160.048 261.265C161.666 197.159 212.527 145.014 276.2 139.915Z"/>
  <!-- Blue inner details of "N" -->
  <path fill="#155095" transform="translate(12,12) scale(1.20)" d="M283.925 161.865C286.355 161.905 288.783 162.005 291.208 162.163C335.629 165.338 354.606 187.148 381.321 218.002L408.31 249.052L518.882 376.64C518.502 346.644 519 315.806 518.972 285.718L518.952 251.918C518.957 244.219 518.915 236.378 519.525 228.706C522.25 194.406 550.198 167.778 584.539 167.446C601.557 167.36 617.912 174.038 630.007 186.01C653.897 209.836 650.299 236.436 650.251 267.292L650.169 316.529L620.302 316.521L620.328 260.462C620.33 256.264 620.315 252.007 620.341 247.823C620.424 234.711 621.271 223.198 612.704 212.264C605.945 203.637 596.917 197.837 585.675 197.746C576.386 197.626 567.432 201.208 560.789 207.703C554.948 213.491 551.117 221.001 549.859 229.128C548.878 235.196 549.242 247.669 549.244 254.212L549.27 298.798L549.195 457.975L521.094 426.161L402.699 289.305L362.345 242.847C354.117 233.349 346.048 223.94 337.523 214.705C310.317 185.232 262.558 185.006 234.184 213.104C222.852 224.447 215.45 239.121 213.063 254.976C210.483 271.984 214.401 291.792 223.86 306.17C228.33 312.965 233.746 319.097 239.049 325.255C244.416 331.538 249.852 337.76 255.359 343.92C259.395 348.366 266.045 353.921 268.139 359.54C269.484 363.145 268.594 397.999 268.576 404.704L228.856 359.698C223.413 353.417 217.289 346.614 212.153 340.147C212.63 353.373 212.177 369.19 212.167 382.634C212.258 408.046 212.108 433.459 211.718 458.869L181.924 458.875C181.324 415.524 181.821 371.047 181.805 327.623L181.795 286.504C181.793 271.882 181.077 259.069 184.101 244.614C187.782 226.312 196.426 209.376 209.088 195.658C229.59 173.513 253.939 163.124 283.925 161.865Z"/>
  <path fill="#155095" transform="translate(12,12) scale(1.20)" d="M629.698 374.375C636.392 374.126 643.528 374.184 650.257 374.131C650.587 387.525 650.315 402.028 650.319 415.49L650.337 494.141L650.35 544.549C650.35 554.5 650.648 566.489 649.928 576.23C647.717 603.089 635.098 628.02 614.762 645.704C594.31 663.307 565.689 672.372 538.859 670.241C518.825 668.546 499.687 661.188 483.678 649.027C472.448 640.641 461.798 627.635 452.477 616.999L421.966 582.131L313.303 456.343L313.564 542.726C313.57 558.314 313.978 574.175 313.222 589.721C311.508 624.976 284.129 652.791 248.627 653.135C230.965 653.274 213.996 646.27 201.576 633.712C179.992 612.211 181.858 586.564 181.879 558.486L181.924 515.959L212.196 515.939L212.05 562.086C212.048 575.478 210.932 588.746 215.637 601.48C217.497 605.476 219.792 609.242 222.887 612.408C229.203 618.799 237.797 622.422 246.782 622.482C256.418 622.625 265.708 618.894 272.569 612.127C285.854 598.93 283.315 583.647 283.284 566.495L283.218 525.087L283.214 375.665C289.411 381.703 299.408 393.91 305.311 400.744L345.684 447.51C380.368 487.908 415.257 528.128 450.352 568.169C463.117 582.744 475.88 597.394 488.624 611.993C503.33 628.84 520.983 639.03 543.811 640.085C562.922 640.912 581.588 634.175 595.765 621.333C610.822 607.622 619.663 588.957 620.266 568.687C621.141 539.278 606.313 523.687 588.591 503.27C580.353 493.653 571.963 484.166 563.426 474.813L563.491 428.094C570.86 435.885 579.025 445.755 586.146 453.947C597.598 467.039 608.979 480.194 620.287 493.411C620.71 454.062 620.306 413.952 620.299 374.543L629.698 374.375Z"/>
  <path fill="#155095" transform="translate(12,12) scale(1.20)" d="M292.603 248.392C303.616 249.211 312.392 252.966 317.459 263.373C320.72 270.07 320 276.738 319.558 283.894C338.762 303.991 358.819 327.86 377.289 348.954L485.431 472.575L521.385 513.574C525.805 518.618 530.097 523.962 534.612 528.876C542.889 530.38 548.433 529.609 555.854 535.169C561.777 539.56 565.665 546.167 566.626 553.477C568.438 566.472 561.004 579.594 548.262 583.534C545.727 584.318 543.455 584.631 540.821 584.962C530.084 584.642 520.204 579.774 515.092 570.05C511.612 563.431 512.27 557.15 512.435 549.976C505.498 542.506 498.44 534.125 491.724 526.406L457.255 486.822L355.759 370.792L317.712 327.34C312.125 320.959 302.711 309.522 296.968 304.163C288.321 302.642 283.282 303.576 275.772 297.055C269.948 292.014 266.346 284.881 265.748 277.202C264.605 260.54 276.517 249.483 292.603 248.392Z"/>
  <path fill="#155095" transform="translate(12,12) scale(1.20)" d="M580.834 321.854C597.6 320.377 597.897 329.067 606.758 329.636C638.967 331.702 663.549 323.819 693.732 342.699C762.188 385.519 745.457 490.594 665.517 508.325L664.664 508.178C663.914 506.589 664.234 481.987 664.239 478.236C690.179 469.221 706.581 447.181 706.383 419.457C706.138 403.226 699.425 387.763 687.733 376.502C671.108 360.311 656.369 360.406 635.243 360.321C624.757 360.284 614.271 360.329 603.785 360.457C600.137 363.663 595.978 367.124 591.261 368.412C570.89 373.973 553.483 351.749 564.425 333.337C568.393 326.66 573.587 323.668 580.834 321.854Z"/>
  <path fill="#155095" transform="translate(12,12) scale(1.20)" d="M165.565 324.685C166.639 324.501 166.642 324.403 167.633 324.785C167.942 327.332 167.801 332.328 167.799 335.133L167.774 354.412C157.642 358.943 152.197 361.263 144.064 369.413C120.009 393.358 120.493 433.182 144.984 456.642C161.008 471.993 175.095 472.358 195.64 472.857C206.875 473.072 218.113 473.03 229.347 472.732C237.663 464.797 246.902 460.619 258.095 466.369C263.735 469.275 267.969 474.327 269.845 480.387C274.316 494.785 266.537 506.923 252.223 511.028C251.66 511.096 251.097 511.159 250.533 511.217C240.698 512.23 236.493 509.346 229.142 503.356C218.787 503.158 207.143 503.04 196.83 503.082C174.061 503.175 156.938 502.049 137.081 488.995C116.849 475.943 102.754 455.264 98.0012 431.66C92.9092 407.578 97.7235 382.459 111.359 361.967C123.864 343.15 143.308 329.211 165.565 324.685Z"/>
  <path fill="#155095" transform="translate(12,12) scale(1.20)" d="M584.097 215.84C595.208 215.259 604.036 224.566 603.957 235.441C603.896 243.767 599.865 248.583 594.497 254.117C594.846 259 594.61 267.342 594.613 272.5L594.684 307.053L586.117 307.119L575.605 307.027C575.747 289.121 575.73 271.214 575.556 253.309C560.043 240.44 563.517 219.084 584.097 215.84Z"/>
  <path fill="#155095" transform="translate(12,12) scale(1.20)" d="M238.8 526.435L256.734 526.452L257.101 567.513C258.856 569.155 260.829 571.041 262.261 572.953C270.494 583.95 267.302 597.185 255.332 603.13C247.934 605.902 239.769 604.465 234.229 598.643C230.583 594.825 228.618 589.706 228.772 584.429C228.978 576.573 233.568 571.932 238.824 566.975C238.589 553.689 238.801 539.772 238.8 526.435Z"/>
</svg>
